<svg width="50" height="50" viewBox="0 0 50 50" fill="none" xmlns="http://www.w3.org/2000/svg">
<g clip-path="url(#clip0_15_171)">
<path d="M42.5031 7.26884C40.2108 4.95533 37.4811 3.12117 34.4728 1.87323C31.4646 0.625299 28.238 -0.0114494 24.9812 9.31228e-05C11.3344 9.31228e-05 0.2125 11.1188 0.2 24.7688C0.2 29.1407 1.34375 33.3938 3.50313 37.1595L0 50.0001L13.1375 46.5563C16.7719 48.5342 20.8435 49.5709 24.9812 49.572H24.9938C38.6438 49.572 49.7625 38.4532 49.775 24.7907C49.7781 21.5346 49.1369 18.3101 47.8883 15.3028C46.6398 12.2956 44.8085 9.56519 42.5 7.26884H42.5031ZM24.9812 45.3782C21.2906 45.3795 17.6678 44.3863 14.4938 42.5032L13.7437 42.0532L5.95 44.097L8.03125 36.4938L7.54375 35.7095C5.48065 32.4292 4.38952 28.6314 4.39687 24.7563C4.39687 13.4251 13.6375 4.18134 24.9938 4.18134C27.6992 4.17649 30.3788 4.7072 32.8782 5.74288C35.3775 6.77856 37.6472 8.29872 39.5562 10.2157C41.472 12.1252 42.9907 14.3952 44.0248 16.8946C45.0588 19.394 45.5878 22.0734 45.5813 24.7782C45.5688 36.1501 36.3281 45.3782 24.9812 45.3782V45.3782ZM36.2781 29.9595C35.6625 29.6501 32.6219 28.1532 32.05 27.9407C31.4812 27.7376 31.0656 27.6313 30.6594 28.2501C30.2437 28.8657 29.0563 30.2688 28.7 30.672C28.3438 31.0876 27.975 31.1345 27.3562 30.8282C26.7406 30.5157 24.7438 29.8657 22.3813 27.7501C20.5375 26.1095 19.3031 24.0782 18.9344 23.4626C18.5781 22.8438 18.9 22.5126 19.2094 22.2032C19.4812 21.9282 19.825 21.4782 20.1344 21.122C20.4469 20.7657 20.55 20.5032 20.7531 20.0907C20.9562 19.672 20.8594 19.3157 20.7062 19.0063C20.55 18.697 19.3156 15.6438 18.7937 14.4126C18.2937 13.197 17.7844 13.3657 17.4031 13.3501C17.0469 13.3282 16.6313 13.3282 16.2156 13.3282C15.9018 13.336 15.5929 13.4086 15.3084 13.5414C15.0239 13.6743 14.77 13.8645 14.5625 14.1001C13.9937 14.7188 12.4031 16.2157 12.4031 19.2688C12.4031 22.322 14.6219 25.2563 14.9344 25.672C15.2406 26.0876 19.2906 32.3345 25.5062 35.022C26.975 35.6626 28.1313 36.0407 29.0344 36.3282C30.5188 36.8032 31.8594 36.7313 32.9281 36.5782C34.1156 36.397 36.5875 35.0782 37.1094 33.6313C37.6219 32.1813 37.6219 30.9438 37.4656 30.6845C37.3125 30.422 36.8969 30.2688 36.2781 29.9595V29.9595Z" fill="black"/>
</g>
<defs>
<clipPath id="clip0_15_171">
<rect width="50" height="50" fill="white"/>
</clipPath>
</defs>
</svg>
