<svg width="60" height="30" viewBox="0 0 60 30" fill="none" xmlns="http://www.w3.org/2000/svg">
<path d="M55.7812 3.28125H34.2188C33.7002 3.28125 33.2812 3.7002 33.2812 4.21875V25.7812C33.2812 26.2998 33.7002 26.7188 34.2188 26.7188H55.7812C56.2998 26.7188 56.7188 26.2998 56.7188 25.7812V4.21875C56.7188 3.7002 56.2998 3.28125 55.7812 3.28125ZM54.8438 24.8438H49.4502V17.6426H52.4971L52.9541 14.1064H49.4502V11.8477C49.4502 10.8223 49.7344 10.125 51.2021 10.125H53.0742V6.96094C52.749 6.91699 51.6387 6.82031 50.3438 6.82031C47.6426 6.82031 45.7939 8.46973 45.7939 11.4961V14.1035H42.7412V17.6396H45.7969V24.8438H35.1562V5.15625H54.8438V24.8438Z" fill="black"/>
<path d="M14.9999 8.99123C11.6747 8.99123 8.99111 11.6748 8.99111 15C8.99111 18.3252 11.6747 21.0088 14.9999 21.0088C18.3251 21.0088 21.0087 18.3252 21.0087 15C21.0087 11.6748 18.3251 8.99123 14.9999 8.99123ZM14.9999 18.9053C12.8495 18.9053 11.0946 17.1504 11.0946 15C11.0946 12.8496 12.8495 11.0947 14.9999 11.0947C17.1503 11.0947 18.9052 12.8496 18.9052 15C18.9052 17.1504 17.1503 18.9053 14.9999 18.9053ZM21.2548 7.34474C20.4784 7.34474 19.8515 7.9717 19.8515 8.74806C19.8515 9.52443 20.4784 10.1514 21.2548 10.1514C22.0311 10.1514 22.6581 9.52736 22.6581 8.74806C22.6583 8.56371 22.6222 8.38113 22.5517 8.21076C22.4813 8.0404 22.3779 7.88561 22.2476 7.75525C22.1172 7.62489 21.9624 7.52154 21.7921 7.45109C21.6217 7.38065 21.4391 7.34451 21.2548 7.34474V7.34474ZM26.7128 15C26.7128 13.3828 26.7274 11.7803 26.6366 10.166C26.5458 8.29103 26.1181 6.62697 24.747 5.25588C23.3729 3.88185 21.7118 3.45705 19.8368 3.36623C18.2196 3.27541 16.6171 3.29006 15.0028 3.29006C13.3856 3.29006 11.7831 3.27541 10.1688 3.36623C8.29384 3.45705 6.62978 3.88478 5.25868 5.25588C3.88466 6.6299 3.45986 8.29103 3.36904 10.166C3.27822 11.7832 3.29286 13.3858 3.29286 15C3.29286 16.6143 3.27822 18.2197 3.36904 19.834C3.45986 21.709 3.88759 23.3731 5.25868 24.7442C6.63271 26.1182 8.29384 26.543 10.1688 26.6338C11.786 26.7246 13.3886 26.71 15.0028 26.71C16.62 26.71 18.2226 26.7246 19.8368 26.6338C21.7118 26.543 23.3759 26.1153 24.747 24.7442C26.121 23.3701 26.5458 21.709 26.6366 19.834C26.7304 18.2197 26.7128 16.6172 26.7128 15V15ZM24.1347 21.9082C23.9208 22.4414 23.663 22.8399 23.2499 23.25C22.8368 23.6631 22.4413 23.9209 21.9081 24.1348C20.3671 24.7471 16.7079 24.6094 14.9999 24.6094C13.2919 24.6094 9.62978 24.7471 8.08876 24.1377C7.55556 23.9238 7.15712 23.666 6.74697 23.2529C6.33388 22.8399 6.07607 22.4444 5.8622 21.9112C5.25282 20.3672 5.39052 16.708 5.39052 15C5.39052 13.292 5.25282 9.6299 5.8622 8.08888C6.07607 7.55568 6.33388 7.15724 6.74697 6.74709C7.16005 6.33693 7.55556 6.07619 8.08876 5.86232C9.62978 5.25295 13.2919 5.39064 14.9999 5.39064C16.7079 5.39064 20.37 5.25295 21.911 5.86232C22.4442 6.07619 22.8427 6.334 23.2528 6.74709C23.6659 7.16017 23.9237 7.55568 24.1376 8.08888C24.747 9.6299 24.6093 13.292 24.6093 15C24.6093 16.708 24.747 20.3672 24.1347 21.9082Z" fill="black"/>
</svg>
